<svg xmlns="http://www.w3.org/2000/svg" version="1.1" xmlns:xlink="http://www.w3.org/1999/xlink" xmlns:svgjs="http://svgjs.dev/svgjs" width="2000" height="1999" viewBox="0 0 2000 1999"><g transform="matrix(1,0,0,1,-0.431486880466764,-0.4312711370263287)"><svg viewBox="0 0 343 343" data-background-color="#ffffff" preserveAspectRatio="xMidYMid meet" height="1999" width="2000" xmlns="http://www.w3.org/2000/svg" xmlns:xlink="http://www.w3.org/1999/xlink"><g id="tight-bounds" transform="matrix(1,0,0,1,0.0740000000000407,0.07400000000001228)"><svg viewBox="0 0 342.85155851775386 342.85155851775386" height="342.85155851775386" width="342.85155851775386"><g><svg></svg></g><g><svg viewBox="0 0 342.85155851775386 342.85155851775386" height="342.85155851775386" width="342.85155851775386"><g><path d="M0 171.426c0-94.676 76.75-171.426 171.426-171.426 94.676 0 171.426 76.75 171.426 171.426 0 94.676-76.75 171.426-171.426 171.426-94.676 0-171.426-76.75-171.426-171.426zM171.426 333.796c89.674 0 162.37-72.695 162.37-162.37 0-89.674-72.695-162.37-162.37-162.37-89.674 0-162.37 72.695-162.37 162.37 0 89.674 72.695 162.37 162.37 162.37z" data-fill-palette-color="tertiary" fill="#000000" stroke="transparent"></path><ellipse rx="164.56874808852186" ry="164.56874808852186" cx="171.42577925887693" cy="171.42577925887693" fill="#000000" stroke="transparent" stroke-width="0" fill-opacity="1" data-fill-palette-color="tertiary"></ellipse></g><g transform="matrix(1,0,0,1,64.84655864529837,121.21649324727778)"><svg viewBox="0 0 213.1584412271571 100.4185720231983" height="100.4185720231983" width="213.1584412271571"><g><svg viewBox="0 0 213.1584412271571 100.4185720231983" height="100.4185720231983" width="213.1584412271571"><g><svg viewBox="0 0 213.1584412271571 100.4185720231983" height="100.4185720231983" width="213.1584412271571"><g><svg viewBox="0 0 213.1584412271571 100.4185720231983" height="100.4185720231983" width="213.1584412271571"><g id="textblocktransform"><svg viewBox="0 0 213.1584412271571 100.4185720231983" height="100.4185720231983" width="213.1584412271571" id="textblock"><g><svg viewBox="0 0 213.1584412271571 100.4185720231983" height="100.4185720231983" width="213.1584412271571"><g transform="matrix(1,0,0,1,0,0)"><svg width="213.1584412271571" viewBox="0.9000000357627869 -35.70000076293945 86.48999786376953 40.75" height="100.4185720231983" data-palette-color="#0074d9"><path d="M1.4-3.35L1.4-3.35Q1.4-8.75 4.6-14.05L4.6-14.05Q0.9-16.4 0.9-21L0.9-21Q0.9-26.55 5.8-30.85L5.8-30.85Q11.3-35.7 20-35.7L20-35.7Q24-35.7 28.6-34.55L28.6-34.55Q29.65-34.3 37.55-30.68 45.45-27.05 48.9-27.05L48.9-27.05Q51.2-27.05 52.35-28.35L52.35-28.35Q52.95-29 52.95-29.75 52.95-30.5 52.3-31.1L52.3-31.1Q51.95-31.6 51.95-31.75 51.95-31.9 52.23-31.9 52.5-31.9 53.18-31.03 53.85-30.15 53.85-28.98 53.85-27.8 52.28-26.73 50.7-25.65 48.3-25.65L48.3-25.65Q44.55-25.65 36.65-29.28 28.75-32.9 26.73-33.3 24.7-33.7 22.1-33.7L22.1-33.7Q11.75-33.7 5.8-27L5.8-27Q5.1-26.25 4.15-23.98 3.2-21.7 3.2-19.6L3.2-19.6Q3.2-16.7 5.25-15.1L5.25-15.1Q7.85-18.9 11.4-21.15 14.95-23.4 18.6-23.4L18.6-23.4Q23.1-23.4 23.1-19.9L23.1-19.9Q23.1-15.7 18.18-10.78 13.25-5.85 9.05-5.85L9.05-5.85Q6.35-5.85 6.35-8.15L6.35-8.15Q6.35-8.95 6.78-9.55 7.2-10.15 7.8-10L7.8-10 7.7-8.85Q7.7-8.1 10-8.1L10-8.1Q13.4-8.1 17.18-11.6 20.95-15.1 21.75-18.45L21.75-18.45Q21.95-19.2 21.95-19.8L21.95-19.8Q21.95-22.05 19.07-22.05 16.2-22.05 13.13-19.85 10.05-17.65 7.35-14.05L7.35-14.05Q7.55-13.95 8.9-13.65L8.9-13.65 11.9-13.55Q14.1-13.45 14.1-13.05L14.1-13.05Q14.1-12.35 12-12.35L12-12.35Q11.85-12.35 11.7-12.35L11.7-12.35Q8.65-12.35 6.7-13.1L6.7-13.1Q2.85-7.2 2.85-2.25L2.85-2.25Q2.85 4.15 7.8 4.15L7.8 4.15Q13.4 4.15 19.45-3.65L19.45-3.65 29.25-18.25Q34.75-26.25 38.8-26.45L38.8-26.45 40.7-26Q41.6-25.5 41.6-24.5 41.6-23.5 41.1-23.5L41.1-23.5 39.5-23.75Q36.05-23.75 30.65-16.3L30.65-16.3 20.7-2.4Q14.3 5.05 8.45 5.05L8.45 5.05Q4.45 5.05 2.93 2.9 1.4 0.75 1.4-3.35ZM46.1-10.6L46.1-10.6Q46.1-8.85 42.75-4.75L42.75-4.75Q38.8 0.1 36 0.1L36 0.1 35.2 0.1Q33.9 0.1 33.15-1.25L33.15-1.25Q32.55-2.2 32.55-3.35L32.55-3.35Q32.55-6.35 36.92-11.78 41.3-17.2 44-17.2L44-17.2Q46.55-17.2 46.55-14.5L46.55-14.5Q46.55-13.8 46.3-12.7L46.3-12.7Q46.35-12.55 47.25-12.55 48.15-12.55 50-13.5L50-13.5Q49.95-12.65 46.05-11.05L46.05-11.05Q46.1-10.85 46.1-10.6ZM42.85-13.2L42.85-13.2Q41.15-13.2 38.02-9.2 34.9-5.2 34.9-3.3 34.9-1.4 36.1-1.4L36.1-1.4Q38.25-1.4 41.55-5.3 44.85-9.2 44.85-10.9L44.85-10.9Q44.05-11.35 42.85-13.2ZM63.5-15.15L63.5-15.15Q69.1-24.25 71.3-24.25L71.3-24.25Q71.65-24.25 72.27-24.03 72.9-23.8 72.9-23.35L72.9-23.35Q72.9-23.1 72.65-22.7L72.65-22.7Q68.65-17.8 66.7-15.35L66.7-15.35Q60.8-7.9 60.2-4.65L60.2-4.65Q60.05-3.95 60.05-3.25L60.05-3.25Q60.05-1 61.9-1L61.9-1Q65.6-1 71.55-7.85L71.55-7.85Q72.05-8.35 72.4-8.43 72.75-8.5 72.75-8.25 72.75-8 72.45-7.65L72.45-7.65Q66.65-0.7 62.15 0.1L62.15 0.1Q61.9 0.15 61.45 0.15L61.45 0.15Q59.9 0.15 59.12-0.93 58.35-2 58.35-3.25L58.35-3.25Q58.35-4.65 58.9-6.35L58.9-6.35 54.85-2.3Q52.1 0.25 50.52 0.25 48.95 0.25 47.9-0.6L47.9-0.6Q46.65-1.55 46.65-3.25L46.65-3.25Q46.65-6.9 51.75-11.98 56.85-17.05 61.1-17.05L61.1-17.05Q62.5-17.05 63.05-16.3L63.05-16.3Q63.25-16.05 63.5-15.15ZM48.75-2.65L48.75-2.65Q48.75-0.85 50-0.85L50-0.85Q52.15-0.85 57.15-6.75L57.15-6.75Q58.05-7.8 63.15-14.6L63.15-14.6Q62.8-15.2 61.95-15.2L61.95-15.2Q58.85-15.2 53.8-10.48 48.75-5.75 48.75-2.65ZM83.49-10.6L83.49-10.6Q83.49-8.85 80.14-4.75L80.14-4.75Q76.19 0.1 73.39 0.1L73.39 0.1 72.59 0.1Q71.29 0.1 70.54-1.25L70.54-1.25Q69.94-2.2 69.94-3.35L69.94-3.35Q69.94-6.35 74.32-11.78 78.69-17.2 81.39-17.2L81.39-17.2Q83.94-17.2 83.94-14.5L83.94-14.5Q83.94-13.8 83.69-12.7L83.69-12.7Q83.74-12.55 84.64-12.55 85.54-12.55 87.39-13.5L87.39-13.5Q87.34-12.65 83.44-11.05L83.44-11.05Q83.49-10.85 83.49-10.6ZM80.24-13.2L80.24-13.2Q78.54-13.2 75.42-9.2 72.29-5.2 72.29-3.3 72.29-1.4 73.49-1.4L73.49-1.4Q75.64-1.4 78.94-5.3 82.24-9.2 82.24-10.9L82.24-10.9Q81.44-11.35 80.24-13.2Z" opacity="1" transform="matrix(1,0,0,1,0,0)" fill="#ffffff" class="wordmark-text-0" data-fill-palette-color="quaternary" id="text-0"></path></svg></g></svg></g></svg></g></svg></g><g></g></svg></g></svg></g></svg></g></svg></g><defs></defs></svg><rect width="342.85155851775386" height="342.85155851775386" fill="none" stroke="none" visibility="hidden"></rect></g></svg></g></svg>